/* XPM */
static char *_157a06f3cea4b0aec429e343c277f67frdEnJ6J1l17elNb[] = {
/* columns rows colors chars-per-pixel */
"64 64 143 2 ",
"   c black",
".  c #010101",
"X  c #050303",
"o  c #050304",
"O  c #060404",
"+  c #070506",
"@  c #0B0708",
"#  c #0D0809",
"$  c #0D0A0B",
"%  c #110B0C",
"&  c #130E0F",
"*  c #160E0F",
"=  c #150E10",
"-  c #151011",
";  c #191012",
":  c #1C1214",
">  c #1D1315",
",  c #1E1315",
"<  c #1B1416",
"1  c #1F1718",
"2  c #211518",
"3  c #241B1D",
"4  c #28191D",
"5  c #2C1C20",
"6  c #2D1D20",
"7  c #2E1D21",
"8  c #332025",
"9  c #342126",
"0  c #342226",
"q  c #372327",
"w  c #36282A",
"e  c #432B30",
"r  c #442B31",
"t  c #472E33",
"y  c #492F34",
"u  c #4A2F35",
"i  c #4B3036",
"p  c #4E3238",
"a  c #503339",
"s  c #523D41",
"d  c #523E42",
"f  c #5A3A41",
"g  c #5D3B43",
"h  c #644048",
"j  c #67424B",
"k  c #68424B",
"l  c #68434B",
"z  c #6B454D",
"x  c #60484C",
"c  c #724952",
"v  c #734A53",
"b  c #764C55",
"n  c #7A4E58",
"m  c #7C4F59",
"M  c #6C5156",
"N  c #7F515B",
"B  c #7F5F65",
"V  c #865660",
"C  c #885762",
"Z  c #805F66",
"A  c #8E5B67",
"S  c #816066",
"D  c #836268",
"F  c #8D686F",
"G  c #96606C",
"H  c #97616D",
"J  c #9D6571",
"K  c #9D6572",
"L  c #9F6672",
"P  c #926C73",
"I  c #966E76",
"U  c #9E6F79",
"Y  c #817F7F",
"T  c #987179",
"R  c #A26875",
"E  c #A56A77",
"W  c #AA6D7A",
"Q  c #AA6D7B",
"!  c #AC6F7C",
"~  c #B57482",
"^  c #BE7A89",
"/  c #C17C8B",
"(  c #C37D8C",
")  c #C47E8D",
"_  c #C57F8E",
"`  c #B4818B",
"'  c #B68891",
"]  c #CF8596",
"[  c #D18797",
"{  c #D38798",
"}  c #D48899",
"|  c #D5899A",
" . c #D78A9B",
".. c #D88B9B",
"X. c #D88B9C",
"o. c #DB8D9E",
"O. c #C19099",
"+. c #C6949E",
"@. c #CC959F",
"#. c #DE8EA0",
"$. c #DE8FA0",
"%. c #CC96A1",
"&. c #D697A4",
"*. c #D59FA9",
"=. c #E291A3",
"-. c #E895A7",
";. c #E198A7",
":. c #EB97AA",
">. c #EC98AA",
",. c #ED99AB",
"<. c #EF99AC",
"1. c #F19BAE",
"2. c #F59DB0",
"3. c #F69EB1",
"4. c #F79FB2",
"5. c #D9A3AD",
"6. c #DAA3AE",
"7. c #DBA4AE",
"8. c #E7A0AE",
"9. c #E9AEB9",
"0. c #F5A3B5",
"q. c #F9A0B3",
"w. c #FBA1B5",
"e. c #FCA2B6",
"r. c #FDA2B6",
"t. c #FFA4B8",
"y. c #FFA5B8",
"u. c #FFA7BA",
"i. c #FFAABC",
"p. c #FBAFBF",
"a. c #FFAEBF",
"s. c #FFB0C0",
"d. c #FFB1C1",
"f. c #F8B7C3",
"g. c #FFB5C4",
"h. c #FFB6C5",
"j. c #F7B9C5",
"k. c #FABBC7",
"l. c #FFB9C7",
"z. c #FFBBC8",
"x. c #FDBECA",
"c. c #FFBFCB",
"v. c white",
/* pixels */
"v.v.v.v.v.v.v.v.v.v.v.v.v.v.v.v.v.v.v.v.v.v.v.v.v.v.v.v.v.v.v.v.Y Y Y Y Y Y Y Y Y Y Y Y Y Y Y Y Y Y Y Y Y Y Y Y Y Y Y Y Y Y Y Y ",
"v.v.v.v.v.v.v.v.v.v.v.v.v.v.v.v.v.v.v.v.v.v.v.v.v.v.v.v.v.v.v.v.Y Y Y Y Y Y Y Y Y Y Y Y Y Y Y Y Y Y Y Y Y Y Y Y Y Y Y Y Y Y Y Y ",
"v.v.v.v.v.v.v.v.v.v.v.v.v.v.v.v.v.v.v.v.v.v.v.v.v.v.v.v.v.v.v.v.Y Y Y Y Y Y Y Y Y Y Y Y Y Y Y Y Y Y Y Y Y Y Y Y Y Y Y Y Y Y Y Y ",
"v.v.v.v.v.v.v.v.v.v.v.v.v.v.v.v.v.v.v.v.v.v.v.v.v.v.v.v.v.v.v.v.Y Y Y Y Y Y Y Y Y Y Y Y Y Y Y Y Y Y Y Y Y Y Y Y Y Y Y Y Y Y Y Y ",
"v.v.v.v.v.v.v.v.v.v.v.v.v.v.v.v.v.v.v.v.v.v.v.v.v.v.v.v.v.v.v.v.Y Y Y Y Y Y Y Y Y Y Y Y Y Y Y Y Y Y Y Y Y Y Y Y Y Y Y Y Y Y Y Y ",
"v.v.v.v.v.v.v.v.v.v.v.v.v.v.v.v.v.v.v.v.v.v.v.v.v.v.v.v.v.v.v.v.Y Y Y Y Y Y Y Y Y Y Y Y Y Y Y Y Y Y Y Y Y Y Y Y Y Y Y Y Y Y Y Y ",
"v.v.v.v.v.v.v.v.v.v.v.v.v.v.v.v.v.v.v.v.v.v.v.v.v.v.v.v.v.v.v.v.Y Y Y Y Y Y Y Y Y Y Y Y Y Y Y Y Y Y Y Y Y Y Y Y Y Y Y Y Y Y Y Y ",
"v.v.v.v.v.v.v.v.v.v.v.v.v.v.v.v.v.v.v.v.v.v.v.v.v.v.v.v.v.v.v.v.Y Y Y Y Y Y Y Y Y Y Y Y Y Y Y Y Y Y Y Y Y Y Y Y Y Y Y Y Y Y Y Y ",
"v.v.v.v.v.v.v.v.v.v.v.v.v.v.v.v.v.v.v.v.v.v.v.v.v.v.v.v.v.v.v.v.Y Y Y Y Y Y Y Y Y Y Y Y Y Y Y Y Y Y Y Y Y Y Y Y Y Y Y Y Y Y Y Y ",
"v.v.v.v.v.v.v.v.v.v.v.v.v.v.v.v.v.v.v.v.v.v.v.v.v.v.v.v.v.v.v.v.Y Y Y Y Y Y Y Y Y Y Y Y Y Y Y Y Y Y Y Y Y Y Y Y Y Y Y Y Y Y Y Y ",
"v.v.v.v.v.v.v.v.v.v.v.v.v.v.v.v.v.v.v.v.v.v.v.v.v.v.v.v.v.v.v.v.Y Y Y Y Y Y Y Y Y Y Y Y Y Y Y Y Y Y Y Y Y Y Y Y Y Y Y Y Y Y Y Y ",
"v.v.v.v.v.v.v.v.v.v.v.v.v.v.v.v.v.v.v.v.v.v.v.v.v.v.v.v.v.v.v.v.Y Y Y Y Y Y Y Y Y Y Y Y Y Y Y Y Y Y Y Y Y Y Y Y Y Y Y Y Y Y Y Y ",
"v.v.v.v.v.v.v.v.v.v.v.v.v.v.v.v.v.v.v.v.v.v.v.v.v.v.v.v.v.v.v.v.Y Y Y Y Y Y Y Y Y Y Y Y Y Y Y Y Y Y Y Y Y Y Y Y Y Y Y Y Y Y Y Y ",
"v.v.v.v.v.v.v.v.v.v.v.v.v.v.v.v.v.v.v.v.v.v.v.v.v.v.v.v.v.v.v.v.Y Y Y Y Y Y Y Y Y Y Y Y Y Y Y Y Y Y Y Y Y Y Y Y Y Y Y Y Y Y Y Y ",
"v.v.v.v.v.v.v.v.v.v.v.v.v.v.v.v.v.v.v.v.v.v.v.v.v.v.v.v.v.v.v.v.Y Y Y Y Y Y Y Y Y Y Y Y Y Y Y Y Y Y Y Y Y Y Y Y Y Y Y Y Y Y Y Y ",
"v.v.v.v.v.v.v.v.v.v.v.v.v.v.v.v.v.v.v.v.v.v.v.v.v.v.v.v.v.v.v.v.Y Y Y Y Y Y Y Y Y Y Y Y Y Y Y Y Y Y Y Y Y Y Y Y Y Y Y Y Y Y Y Y ",
"v.v.v.v.v.v.v.v.v.v.v.v.v.v.v.v.v.v.v.v.v.v.v.v.v.v.v.v.v.v.v.v.Y Y Y Y Y Y Y Y Y Y Y Y Y Y Y Y Y Y Y Y Y Y Y Y Y Y Y Y Y Y Y Y ",
"v.v.v.v.v.v.v.v.v.v.v.v.v.v.v.v.v.v.v.v.v.v.v.v.v.v.v.v.v.v.v.v.Y Y Y B Y Y Y Y Y Y Y Y Y Y Y Y Y Y Y Y Y Y Y Y Y Y Y Y Y Y Y Y ",
"v.v.v.v.v.v.v.v.v.v.v.v.v.v.v.v.v.v.v.v.v.v.v.v.v.v.v.v.v.  v.v.Y +   ` Y Y Y Y Y Y Y Y Y Y Y Y Y Y Y Y Y Y Y Y Y Y Y Y Y Y Y Y ",
"v.v.v.v.v.v.v.v.v.v.v.v.v.v.v.v.v.v.v.v.v.v.v.v.v.v.v.v.- T 6.@.$ B T = Y Y Y Y Y Y Y Y Y Y Y Y Y Y Y Y Y Y Y Y Y Y Y Y Y Y Y Y ",
"v.v.v.v.v.v.v.v.v.v.v.v.v.v.v.v.v.v.v.v.v.v.v.v.  < 1   x c.c.F M c.x.x   < =   Y Y Y Y Y Y Y Y Y Y Y Y Y Y Y Y Y Y Y Y Y Y Y Y ",
"v.v.v.v.v.v.v.v.v.v.v.v.v.v.v.v.v.v.v.v.v.v.v.3 +.c.c.*.w D z.N B c.B w { t.r.) 2 Y Y Y Y Y Y Y Y Y Y Y Y Y Y Y Y Y Y Y Y Y Y Y ",
"v.v.v.v.v.v.v.v.v.v.v.v.v.v.v.v.v.v.v.v.v.v.+ 7.c.c.z.d.0.;.y.N B c.5.0.y.t.t.t...X Y Y Y Y Y Y Y Y Y Y Y Y Y Y Y Y Y Y Y Y Y Y ",
"v.v.v.v.v.v.v.v.v.v.v.v.v.v.v.v.v.v.v.v.v.v.s c.c.h.a i =.y.y.N B c.d.o.u a t.y.r.W Y Y Y Y Y Y Y Y Y Y Y Y Y Y Y Y Y Y Y Y Y Y ",
"v.v.v.v.v.v.v.v.v.v.v.v.v.v.v.v.v.v.v.v.v.v.M c.c.y.:.b a t.t.N B c.a.p b >.y.y.y.<.Y Y Y Y Y Y Y Y Y Y Y Y Y Y Y Y Y Y Y Y Y Y ",
"v.v.v.v.v.v.v.v.v.v.v.v.v.v.v.v.v.v.v.v.  @ $ 5 U r.y.| 4 t.t.N B c.d.3 X.y.r.J 4 $ @   Y Y Y Y Y Y Y Y Y Y Y Y Y Y Y Y Y Y Y Y ",
"v.v.v.v.v.v.v.v.v.v.v.v.v.v.v.v.v.v.v.< ' c.c.O.w C y.w.] t.y.N B c.h.] w.y.V q / r.r.~ < Y Y Y Y Y Y Y Y Y Y Y Y Y Y Y Y Y Y Y ",
"v.v.v.v.v.v.v.v.v.v.v.v.v.v.v.v.v.v.$ 6.c.c.z.s.y.4.t.y.t.t.t.m B c.g.t.y.y.q.r.t.t.t.t.X.$ Y Y Y Y Y Y Y Y Y Y Y Y Y Y Y Y Y Y ",
"v.v.v.v.v.v.v.v.v.v.v.v.v.v.v.v.v.  S c.c.h.t.t.t.t.r.y.y.n E V B c.d.t.y.y.t.t.t.t.t.t.y.N   Y Y Y Y Y Y Y Y Y Y Y Y Y Y Y Y Y ",
"v.v.v.v.v.v.v.v.v.v.v.v.v.v.v.v.v.  6.c.z.y.t.g #.t.w.o.y.{ 3   B c.d.y.o.4.t.#.g t.t.t.y.|   Y Y Y Y Y Y Y Y Y Y Y Y Y Y Y Y Y ",
"v.v.v.v.v.v.v.v.v.v.v.v.v.v.v.v.v.  k.c.a.y.y.G $ 8 * l t.t.t.m B c.s.y.j = 8 % H t.t.t.y.4.  Y Y Y Y Y Y Y Y Y Y Y Y Y Y Y Y Y ",
"v.v.v.v.v.v.v.v.v.v.v.v.v.v.v.v.v.  9.c.y.y.t.t.4.) - X.t.t.t.N Z c.s.t.X.= ) 4.t.t.t.t.y.:.  Y Y Y Y Y Y Y Y Y Y Y Y Y Y Y Y Y ",
"Y Y Y Y Y Y Y Y Y Y Y Y Y Y Y Y Y + ~ x.t.t.t.y.t.t.f R t.t.4.m D c.d.u.K g u.y.y.y.t.t.t.J   v.v.v.v.v.v.v.v.v.v.v.v.v.v.v.v.v.",
"Y Y Y Y Y Y Y Y Y Y Y Y Y Y Y Y Y Y < j.y.t.t.r.t.y.5 ) t.t.t.B = s ,.t./ 5 y.y.y.r.t.t.1.2 v.v.v.v.v.v.v.v.v.v.v.v.v.v.v.v.v.v.",
"Y Y Y Y Y Y Y Y Y Y Y Y Y Y Y Y Y Y Y 9.i.<.C 4.t.t.J t.t.t.y.N M B j t.t.J y.y.4.V ,.#.9   v.v.v.v.v.v.v.v.v.v.v.v.v.v.v.v.v.v.",
"Y Y Y Y Y Y Y Y Y Y Y Y Y Y Y Y Y Y Y ~ { 2 l w.t.t.t.t.t.t.y.N B c.p.w.t.t.t.t.w.l ; + v.v.v.v.v.v.v.v.v.v.v.v.v.v.v.v.v.v.v.v.",
"Y Y Y Y Y Y Y Y Y Y Y Y Y Y Y Y Y Y Y Y   m t.t.t.t.t.t.t.t.t.N B c.d.y.t.t.t.t.t.t.m   v.v.v.v.v.v.v.v.v.v.v.v.v.v.v.v.v.v.v.v.",
"Y Y Y Y Y Y Y Y Y Y Y Y Y Y Y Y Y Y Y Y o 4.t.t.t.t.t.Q t w.t.N B c.s.t W t.t.t.t.t.1.X v.v.v.v.v.v.v.v.v.v.v.v.v.v.v.v.v.v.v.v.",
"Y Y Y Y Y Y Y Y Y Y Y Y Y Y Y Y Y Y Y Y : t.t.t.t.t. .4.8 ~ y.N B c.` 8 w. .t.t.t.t.t.< v.v.v.v.v.v.v.v.v.v.v.v.v.v.v.v.v.v.v.v.",
"Y Y Y Y Y Y Y Y Y Y Y Y Y Y Y Y Y Y Y Y + 4.t.t.t.A r t.h J y.N B c.I h t.e A t.t.r.4.X v.v.v.v.v.v.v.v.v.v.v.v.v.v.v.v.v.v.v.v.",
"Y Y Y Y Y Y Y Y Y Y Y Y Y Y Y Y Y Y Y Y X F u.t.q.& $.q.= ..y.N B c.&.= w.o.= w.t.t.G   v.v.v.v.v.v.v.v.v.v.v.v.v.v.v.v.v.v.v.v.",
"Y Y Y Y Y Y Y Y Y Y Y Y Y Y Y Y Y Y Y Y Y $ ^ y.| 5 y.y.o.y.y.N B c.d. .t.t.4 | t.^ $ v.v.v.v.v.v.v.v.v.v.v.v.v.v.v.v.v.v.v.v.v.",
"Y Y Y Y Y Y Y Y Y Y Y Y Y Y Y Y Y Y Y Y Y Y   i z , y.y.y.y.y.j P c.d.y.y.y.: z u   v.v.v.v.v.v.v.v.v.v.v.v.v.v.v.v.v.v.v.v.v.v.",
"Y Y Y Y Y Y Y Y Y Y Y Y Y Y Y Y Y Y Y Y Y Y Y Y     ! y.r.y.-.* %.c.s.y.y.W     v.v.v.v.v.v.v.v.v.v.v.v.v.v.v.v.v.v.v.v.v.v.v.v.",
"Y Y Y Y Y Y Y Y Y Y Y Y Y Y Y Y Y Y Y Y Y Y Y Y Y Y + c E Z : Y v.i.) W c o v.v.v.v.v.v.v.v.v.v.v.v.v.v.v.v.v.v.v.v.v.v.v.v.v.v.",
"Y Y Y Y Y Y Y Y Y Y Y Y Y Y Y Y Y Y Y Y Y Y Y Y Y Y Y       ~ Y v.v.v.    v.v.v.v.v.v.v.v.v.v.v.v.v.v.v.v.v.v.v.v.v.v.v.v.v.v.v.",
"Y Y Y Y Y Y Y Y Y Y Y Y Y Y Y Y Y Y Y Y Y Y Y Y Y Y Y Y Y Y Y Y v.v.v.v.v.v.v.v.v.v.v.v.v.v.v.v.v.v.v.v.v.v.v.v.v.v.v.v.v.v.v.v.",
"Y Y Y Y Y Y Y Y Y Y Y Y Y Y Y Y Y Y Y Y Y Y Y Y Y Y Y Y Y Y Y Y v.v.v.v.v.v.v.v.v.v.v.v.v.v.v.v.v.v.v.v.v.v.v.v.v.v.v.v.v.v.v.v.",
"Y Y Y Y Y Y Y Y Y Y Y Y Y Y Y Y Y Y Y Y Y Y Y Y Y Y Y Y Y Y Y Y v.v.v.v.v.v.v.v.v.v.v.v.v.v.v.v.v.v.v.v.v.v.v.v.v.v.v.v.v.v.v.v.",
"Y Y Y Y Y Y Y Y Y Y Y Y Y Y Y Y Y Y Y Y Y Y Y Y Y Y Y Y Y Y Y Y v.v.v.v.v.v.v.v.v.v.v.v.v.v.v.v.v.v.v.v.v.v.v.v.v.v.v.v.v.v.v.v.",
"Y Y Y Y Y Y Y Y Y Y Y Y Y Y Y Y Y Y Y Y Y Y Y Y Y Y Y Y Y Y Y Y v.v.v.v.v.v.v.v.v.v.v.v.v.v.v.v.v.v.v.v.v.v.v.v.v.v.v.v.v.v.v.v.",
"Y Y Y Y Y Y Y Y Y Y Y Y Y Y Y Y Y Y Y Y Y Y Y Y Y Y Y Y Y Y Y Y v.v.v.v.v.v.v.v.v.v.v.v.v.v.v.v.v.v.v.v.v.v.v.v.v.v.v.v.v.v.v.v.",
"Y Y Y Y Y Y Y Y Y Y Y Y Y Y Y Y Y Y Y Y Y Y Y Y Y Y Y Y Y Y Y Y v.v.v.v.v.v.v.v.v.v.v.v.v.v.v.v.v.v.v.v.v.v.v.v.v.v.v.v.v.v.v.v.",
"Y Y Y Y Y Y Y Y Y Y Y Y Y Y Y Y Y Y Y Y Y Y Y Y Y Y Y Y Y Y Y Y v.v.v.v.v.v.v.v.v.v.v.v.v.v.v.v.v.v.v.v.v.v.v.v.v.v.v.v.v.v.v.v.",
"Y Y Y Y Y Y Y Y Y Y Y Y Y Y Y Y Y Y Y Y Y Y Y Y Y Y Y Y Y Y Y Y v.v.v.v.v.v.v.v.v.v.v.v.v.v.v.v.v.v.v.v.v.v.v.v.v.v.v.v.v.v.v.v.",
"Y Y Y Y Y Y Y Y Y Y Y Y Y Y Y Y Y Y Y Y Y Y Y Y Y Y Y Y Y Y Y Y v.v.v.v.v.v.v.v.v.v.v.v.v.v.v.v.v.v.v.v.v.v.v.v.v.v.v.v.v.v.v.v.",
"Y Y Y Y Y Y Y Y Y Y Y Y Y Y Y Y Y Y Y Y Y Y Y Y Y Y Y Y Y Y Y Y v.v.v.v.v.v.v.v.v.v.v.v.v.v.v.v.v.v.v.v.v.v.v.v.v.v.v.v.v.v.v.v.",
"Y Y Y Y Y Y Y Y Y Y Y Y Y Y Y Y Y Y Y Y Y Y Y Y Y Y Y Y Y Y Y Y v.v.v.v.v.v.v.v.v.v.v.v.v.v.v.v.v.v.v.v.v.v.v.v.v.v.v.v.v.v.v.v.",
"Y Y Y Y Y Y Y Y Y Y Y Y Y Y Y Y Y Y Y Y Y Y Y Y Y Y Y Y Y Y Y Y v.v.v.v.v.v.v.v.v.v.v.v.v.v.v.v.v.v.v.v.v.v.v.v.v.v.v.v.v.v.v.v.",
"Y Y Y Y Y Y Y Y Y Y Y Y Y Y Y Y Y Y Y Y Y Y Y Y Y Y Y Y Y Y Y Y v.v.v.v.v.v.v.v.v.v.v.v.v.v.v.v.v.v.v.v.v.v.v.v.v.v.v.v.v.v.v.v.",
"Y Y Y Y Y Y Y Y Y Y Y Y Y Y Y Y Y Y Y Y Y Y Y Y Y Y Y Y Y Y Y Y v.v.v.v.v.v.v.v.v.v.v.v.v.v.v.v.v.v.v.v.v.v.v.v.v.v.v.v.v.v.v.v.",
"Y Y Y Y Y Y Y Y Y Y Y Y Y Y Y Y Y Y Y Y Y Y Y Y Y Y Y Y Y Y Y Y v.v.v.v.v.v.v.v.v.v.v.v.v.v.v.v.v.v.v.v.v.v.v.v.v.v.v.v.v.v.v.v.",
"Y Y Y Y Y Y Y Y Y Y Y Y Y Y Y Y Y Y Y Y Y Y Y Y Y Y Y Y Y Y Y Y v.v.v.v.v.v.v.v.v.v.v.v.v.v.v.v.v.v.v.v.v.v.v.v.v.v.v.v.v.v.v.v.",
"Y Y Y Y Y Y Y Y Y Y Y Y Y Y Y Y Y Y Y Y Y Y Y Y Y Y Y Y Y Y Y Y v.v.v.v.v.v.v.v.v.v.v.v.v.v.v.v.v.v.v.v.v.v.v.v.v.v.v.v.v.v.v.v."
};
