/* XPM */
static char *_6e353dd7af243258f4cdb02446de8e2w5XcjclF7krjWkR2[] = {
/* columns rows colors chars-per-pixel */
"64 64 76 1 ",
"  c #817F7F",
". c #01A13D",
"X c #06A441",
"o c #09A643",
"O c #0DA946",
"+ c #0EAB49",
"@ c #12AE4C",
"# c #15B04F",
"$ c #19B14F",
"% c #16B252",
"& c #1CB554",
"* c #1CB759",
"= c #1EB95B",
"- c #21B755",
"; c #22B857",
": c #22BA5C",
"> c #2ABD5D",
", c #1FBF66",
"< c #21BF65",
"1 c #2ABF60",
"2 c #23C066",
"3 c #2BC164",
"4 c #26C268",
"5 c #2BC469",
"6 c #30C364",
"7 c #31C66B",
"8 c #35C96C",
"9 c #38CA6D",
"0 c #3BCB6E",
"q c #3DCB6E",
"w c #3ECC6F",
"e c #3FCD6F",
"r c #40CD6F",
"t c #41CD70",
"y c #44CF70",
"u c #44CF71",
"i c #45D071",
"p c #46D071",
"a c #4BD272",
"s c #4CD273",
"d c #4ED373",
"f c #51D474",
"g c #52D574",
"h c #53D575",
"j c #54D675",
"k c #56D676",
"l c #57D776",
"z c #58D776",
"x c #5AD876",
"c c #5AD877",
"v c #5CD977",
"b c #5DD978",
"n c #5EDA78",
"m c #5FDB78",
"M c #62DC79",
"N c #64DD79",
"B c #65DD7A",
"V c #67DE7A",
"C c #69DF7B",
"Z c #6ADF7B",
"A c #6BDF7B",
"S c #6CE07C",
"D c #6FE17D",
"F c #73E37E",
"G c #74E37E",
"H c #74E47E",
"J c #79E57F",
"K c #79E580",
"L c #7BE780",
"P c #7DE681",
"I c #7EE780",
"U c #7FE881",
"Y c #80E781",
"T c #80E881",
"R c #80E982",
"E c white",
/* pixels */
"EEEEEEEEEEEEEEEEEEEEEEEEEEEEEEEE                                ",
"EEEEEEEEEEEEEEEEEEEEEEEEEEEEEEEE                                ",
"EEEEEEEEEEEEEEEEEEEEEEEEEEEEETTJ478w                            ",
"EEEEEEEEEEEEEEEEEEEEEEEEEEUTTTTU,,2,45                          ",
"EEEEEEEEEEEEEEEEEEEEEEEEUUUUUUTJ,,,,,,25                        ",
"EEEEEEEEEEEEEEEEEEEEEEEUUUTTUUDB:==22,,,47                      ",
"EEEEEEEEEEEEEEEEEEEEETUUUUUKFx9,..O&==2,,27                     ",
"EEEEEEEEEEEEEEEEEEEEJUUUUUIMw2,,....X#:<,,,7                    ",
"EEEEEEEEEEEEEEEEEEEYUUUUUIx7,,25%@#+#@$*<,,27                   ",
"EEEEEEEEEEEEEEEEEEUIUUUUIc7,28db44,444:=>2,,27                  ",
"EEEEEEEEEEEEEEEEEEUUUUUIM7,5aDUI,,,,,,,2122,,4                  ",
"EEEEEEEEEEEEEEEEEUUTUUUFp,9bFUUH,2442,,,,22,,,5                 ",
"EEEEEEEEEEEEEEEEKUTTUULl49bLUUUS=+O++:42,,,,,,,8                ",
"EEEEEEEEEEEEEEEEUUTTUUD57bUUUFp5X....XO:2,,,,,,4                ",
"EEEEEEEEEEEEEEEYUUUUUKs5hIUUS82,.......X&4,,,,,,7               ",
"EEEEEEEEEEEEEEEUUUUUUM40DUUD8,,,&>31>@...#<2,,,,2               ",
"EEEEEEEEEEEEEEITTUUUIh5hUUKw2,wS,,,2,2>+..&2,,,,,8              ",
"EEEEEEEEEEEEEETUUUUUK8wKUIc54cLL,,,,,,,2;..>2,,,,,              ",
"EEEEEEEEEEEEEEIUUUUUS7bUUK94bKUK2,:,2,,,2>O.:,,,,2w             ",
"EEEEEEEEEEEEETUUUUUIj8FUIz5hIUUK:-+#;<2,,2*.#<,,,25             ",
"EEEEEEEEEEEEEUUUUUKKtpTUFwwFUUKt.....+:2,,4#.;42,,2             ",
"EEEEEEEEEEEEEUUUUUUD7cUUB9cUUKt,.+++...&,,,4#o22,,4r            ",
"EEEEEEEEEEEEUUUILUUV5AUUjtDUUc25#23:&+oo=2,,2.>,,,48            ",
"EEEEEEEEEEEEUUUFUUUc9IUIsdKUI99b2,,222*o+:2,2&o5,,,4            ",
"EEEEEEEEEEEEUUUCUUKjtUUDpxUUB5xI2,,,,,2=o$2,,3.3,,,2            ",
"EEEEEEEEEEEETUUxUULdaUUDaBUUh4jI,4=>2,,2*O:2,,$-,,,4            ",
"EEEEEEEEEEEETUUdLUIshUUBdDUUt25d&#o+&4,,2@&2,,3o4,,4            ",
"EEEEEEEEEEEEUUUpLTKshUUMaFUU0<<<....X&2,,:#=,,4.5,,40           ",
"EEEEEEEEEEEEUUIrUUIphUUMhHUU92,,.....+=,,4+:2,2$3,,28           ",
"EEEEEEEEEEEUUUJ9KUIdsUUBhDUUr2,,......%4,2&>2,,1-,227           ",
"EEEEEEEEEEETUUF8UULhpUUSdBUUj2,,...#3:&1,,2&=,,3+,,27           ",
"EEEEEEEEEEETUUD5KUUx0UUKaxTTD5,,..X3<4*%,,3O,,,7.2,25           ",
"           UUUF4FUTB7GUIdaJUB4,,..o3,,%*2,2O<,,<.4<23EEEEEEEEEEE",
"           UUUI5BUTD9BUUv9dj7,,,..o3,,<34,,%3<,,O4,25EEEEEEEEEEE",
"           UUUU9dUUFqdUUFw,,,,,,...-,,132,2&3<,,%,,47EEEEEEEEEEE",
"            UUUa9UTId9HUUj5,,,,,...$,,331,,:6<,,;,,49EEEEEEEEEEE",
"            UUUx2KUUM5bITHa4,,,4o..%<,431,,:3,,,>,,49EEEEEEEEEEE",
"            UUUF2bUUF9qFUUFa559a&@.=,,162,,:62,,>,24EEEEEEEEEEEE",
"            UUUU98KTIj5fHTUFvlDL2>X3,,,>4,2&14,,3,,4EEEEEEEEEEEE",
"            UUUUh2DUYC95jHUUUUUU,1o3,,*;4,,@1<,,52,2EEEEEEEEEEEE",
"            UTUUF2pJUUl55aFLUUUJ1@%2,2&%2,4O22,24,24EEEEEEEEEEEE",
"            TUUUUw4SUUKd449abMxt+X3,,<;=,,3+=,,2,,29EEEEEEEEEEEE",
"             UUUUD20FUUDp2,2555,.:2,2*$4,,:&,,,2,,4qEEEEEEEEEEEE",
"             UUUUJw2iKUUDa5,2,,2:2,,<%#4,<#:,,,,,,2EEEEEEEEEEEEE",
"             TUUUUD54dUUUJBp55rM2,,2:+:,,4+:,,,,,25EEEEEEEEEEEEE",
"              UUUUUb25xUUUJJJJJJ,,,1X#2,,>$,,,,,,2wEEEEEEEEEEEEE",
"              TUUUUHp,4pFUTTTUTJ,<1XO3,,4@:2,,,,,2EEEEEEEEEEEEEE",
"              UTUUUUD8,,7vJJUUJJ5&..%2,,*o*2,,,,27EEEEEEEEEEEEEE",
"               UTTTUJD82,27phhp7...@4,,4#@,,,,,,2EEEEEEEEEEEEEEE",
"               UTTUUUUDw2,,,,,,,.X@5,,2%.*2,,,,,5EEEEEEEEEEEEEEE",
"                TTUUUUUFh54,,,24O&4,,2:@$2,,,,,2EEEEEEEEEEEEEEEE",
"                JUUUUUUUUSdw88wd5,,,,:#o=2,,,,,9EEEEEEEEEEEEEEEE",
"                 TTUTJJUUUTLHUUJ,,,2:@.*4,,,,,5EEEEEEEEEEEEEEEEE",
"                  UUTFSSJUTTUUUJ,22%+.@:,,,,,4EEEEEEEEEEEEEEEEEE",
"                  TTTUFhdbDFIHHD<&#..+=2,,2,48EEEEEEEEEEEEEEEEEE",
"                   JUUHDa70tiit9+...#=2,,,,,5EEEEEEEEEEEEEEEEEEE",
"                    UUUUHj72,<,,..X&<2,,,,25EEEEEEEEEEEEEEEEEEEE",
"                     TUUUFDh94<,.&=<,,,,,45EEEEEEEEEEEEEEEEEEEEE",
"                       UUUUKFDBh:<2,,,,,47EEEEEEEEEEEEEEEEEEEEEE",
"                        TTUUUUIK2,,,,,23EEEEEEEEEEEEEEEEEEEEEEEE",
"                          UUUUUI,,,<25EEEEEEEEEEEEEEEEEEEEEEEEEE",
"                             UUI479wEEEEEEEEEEEEEEEEEEEEEEEEEEEE",
"                                EEEEEEEEEEEEEEEEEEEEEEEEEEEEEEEE",
"                                EEEEEEEEEEEEEEEEEEEEEEEEEEEEEEEE"
};
