/* XPM */
static char *_016b790e6384802929adaffff5280ebIw22MaUWsFkh2TP1[] = {
/* columns rows colors chars-per-pixel */
"64 64 2 1 ",
"  c #817F7F",
". c white",
/* pixels */
"................................                                ",
"................................                                ",
"................................                                ",
"................................                                ",
"................................                                ",
"................................                                ",
"................................                                ",
"................................                                ",
"................................                                ",
"................................                                ",
"................................                                ",
"................................                                ",
"................................                                ",
"................................                                ",
"................................                                ",
"................................                                ",
"................................                                ",
"................................                                ",
"................................                                ",
"................................                                ",
"................................                                ",
"................................                                ",
"................................                                ",
"................................                                ",
"................................                                ",
"................................                                ",
"................................                                ",
"................................                                ",
"................................                                ",
"................................                                ",
"................................                                ",
"................................                                ",
"                                ................................",
"                                ................................",
"                                ................................",
"                                ................................",
"                                ................................",
"                                ................................",
"                                ................................",
"                                ................................",
"                                ................................",
"                                ................................",
"                                ................................",
"                                ................................",
"                                ................................",
"                                ................................",
"                                ................................",
"                                ................................",
"                                ................................",
"                                ................................",
"                                ................................",
"                                ................................",
"                                ................................",
"                                ................................",
"                                ................................",
"                                ................................",
"                                ................................",
"                                ................................",
"                                ................................",
"                                ................................",
"                                ................................",
"                                ................................",
"                                ................................",
"                                ................................"
};
