/* XPM */
static char *_ebca532cfab4ba1cf80df0b89801878PB3sap1gQkF8Udro[] = {
/* columns rows colors chars-per-pixel */
"64 64 2 1 ",
"  c #8C4545",
". c #8E8E8E",
/* pixels */
"................................................................",
"   .               .               .               .            ",
"   .               .               .               .            ",
"   .               .               .               .            ",
"   .               .               .               .            ",
"   .               .               .               .            ",
"   .               .               .               .            ",
"   .               .               .               .            ",
"   .               .               .               .            ",
"................................................................",
"           .               .               .               .    ",
"           .               .               .               .    ",
"           .               .               .               .    ",
"           .               .               .               .    ",
"           .               .               .               .    ",
"           .               .               .               .    ",
"           .               .               .               .    ",
"           .               .               .               .    ",
"................................................................",
"   .               .               .               .            ",
"   .               .               .               .            ",
"   .               .               .               .            ",
"   .               .               .               .            ",
"   .               .               .               .            ",
"   .               .               .               .            ",
"   .               .               .               .            ",
"   .               .               .               .            ",
"................................................................",
"           .               .               .               .    ",
"           .               .               .               .    ",
"           .               .               .               .    ",
"           .               .               .               .    ",
"           .               .               .               .    ",
"           .               .               .               .    ",
"           .               .               .               .    ",
"           .               .               .               .    ",
"................................................................",
"   .               .               .               .            ",
"   .               .               .               .            ",
"   .               .               .               .            ",
"   .               .               .               .            ",
"   .               .               .               .            ",
"   .               .               .               .            ",
"   .               .               .               .            ",
"   .               .               .               .            ",
"................................................................",
"           .               .               .               .    ",
"           .               .               .               .    ",
"           .               .               .               .    ",
"           .               .               .               .    ",
"           .               .               .               .    ",
"           .               .               .               .    ",
"           .               .               .               .    ",
"           .               .               .               .    ",
"................................................................",
"   .               .               .               .            ",
"   .               .               .               .            ",
"   .               .               .               .            ",
"   .               .               .               .            ",
"   .               .               .               .            ",
"   .               .               .               .            ",
"   .               .               .               .            ",
"   .               .               .               .            ",
"................................................................"
};
