/* XPM */
static char *df1acd340ef448f392ec199e154b979dCnR6WrZuQhRuHWkC[] = {
/* columns rows colors chars-per-pixel */
"64 64 2 1 ",
"  c #8C4545",
". c #8E8E8E",
/* pixels */
"              .             .             .             .       ",
"              .             .             .             .       ",
"              .             .             .             .       ",
"              .             .             .             .       ",
"              .             .             .             .       ",
"              .             .             .             .       ",
"              .             .             .             .       ",
"              .             .             .             .       ",
"              .             .             .             .       ",
"................................................................",
"       .             .             .             .              ",
"       .             .             .             .              ",
"       .             .             .             .              ",
"       .             .             .             .              ",
"       .             .             .             .              ",
"       .             .             .             .              ",
"       .             .             .             .              ",
"       .             .             .             .              ",
"................................................................",
"              .             .             .             .       ",
"              .             .             .             .       ",
"              .             .             .             .       ",
"              .             .             .             .       ",
"              .             .             .             .       ",
"              .             .             .             .       ",
"              .             .             .             .       ",
"              .             .             .             .       ",
"................................................................",
"       .             .             .             .              ",
"       .             .             .             .              ",
"       .             .             .             .              ",
"       .             .             .             .              ",
"       .             .             .             .              ",
"       .             .             .             .              ",
"       .             .             .             .              ",
"       .             .             .             .              ",
"................................................................",
"              .             .             .             .       ",
"              .             .             .             .       ",
"              .             .             .             .       ",
"              .             .             .             .       ",
"              .             .             .             .       ",
"              .             .             .             .       ",
"              .             .             .             .       ",
"              .             .             .             .       ",
"................................................................",
"       .             .             .             .              ",
"       .             .             .             .              ",
"       .             .             .             .              ",
"       .             .             .             .              ",
"       .             .             .             .              ",
"       .             .             .             .              ",
"       .             .             .             .              ",
"       .             .             .             .              ",
"................................................................",
"              .             .             .             .       ",
"              .             .             .             .       ",
"              .             .             .             .       ",
"              .             .             .             .       ",
"              .             .             .             .       ",
"              .             .             .             .       ",
"              .             .             .             .       ",
"              .             .             .             .       ",
"              .             .             .             .       "
};
